<svg width="448" height="512" viewBox="0 0 448 512" fill="none" xmlns="http://www.w3.org/2000/svg">
<g clip-path="url(#clip0_438_183)">
<path d="M257.55 445.1L235.35 467.3C225.95 476.7 210.75 476.7 201.45 467.3L7.04979 273C-2.35021 263.6 -2.35021 248.4 7.04978 239.1L201.45 44.7C210.85 35.3 226.05 35.3 235.35 44.7L257.55 66.9C267.05 76.4 266.85 91.9 257.15 101.2L136.65 216L424.05 216C437.35 216 448.05 226.7 448.05 240L448.05 272C448.05 285.3 437.35 296 424.05 296L136.65 296L257.15 410.8C266.95 420.1 267.15 435.6 257.55 445.1Z" fill="#518646"/>
</g>
<defs>
<clipPath id="clip0_438_183">
<rect width="448" height="512" fill="white"/>
</clipPath>
</defs>
</svg>
