<svg width="448" height="512" viewBox="0 0 448 512" fill="none" xmlns="http://www.w3.org/2000/svg">
<path d="M413.125 222.475L435.325 244.675C444.725 254.075 444.725 269.275 435.325 278.575L241.025 472.975C231.625 482.375 216.425 482.375 207.125 472.975L12.725 278.575C3.325 269.175 3.325 253.975 12.725 244.675L34.925 222.475C44.425 212.975 59.925 213.175 69.225 222.875L184.025 343.375L184.025 55.975C184.025 42.675 194.725 31.975 208.025 31.975L240.025 31.975C253.325 31.975 264.025 42.675 264.025 55.975L264.025 343.375L378.825 222.875C388.125 213.075 403.625 212.875 413.125 222.475Z" fill="#518646"/>
</svg>
