<svg width="125" height="125" viewBox="0 0 125 125" fill="none" xmlns="http://www.w3.org/2000/svg">
<g clip-path="url(#clip0_135_362)">
<path d="M119.476 15.625H5.83949C2.71449 15.625 0 18.1818 0 21.3068V48.7689C0 51.8939 2.71449 54.4508 5.83949 54.4508H15.625V101.562C15.625 105.877 19.1231 109.375 23.4375 109.375C27.7519 109.375 31.25 105.877 31.25 101.562V93.9328L60.7126 82.2202L93.75 95.3537V101.562C93.75 105.877 97.2481 109.375 101.562 109.375C105.877 109.375 109.375 105.877 109.375 101.562V54.4508H119.476C122.601 54.4508 125 51.8939 125 48.7689V21.3068C125 18.1818 122.601 15.625 119.476 15.625ZM93.6709 23.2008H109.296L101.72 46.875H86.0952L93.6709 23.2008ZM58.633 23.2008H74.258L66.6823 46.875H51.0573L58.633 23.2008ZM23.3584 23.2008H38.9834L31.4077 46.875H15.7827L23.3584 23.2008ZM31.25 85.2704V70.5071L49.8182 77.8887L31.25 85.2704ZM71.607 77.8887L93.75 69.0857V86.6918L71.607 77.8887ZM93.75 60.4238L60.7126 73.5573L31.25 61.8447V54.4508H93.75V60.4238Z" fill="#518646"/>
</g>
<defs>
<clipPath id="clip0_135_362">
<rect width="125" height="125" fill="white"/>
</clipPath>
</defs>
</svg>
